<svg xmlns="http://www.w3.org/2000/svg" xmlns:se="http://svg-edit.googlecode.com" xmlns:xlink="http://www.w3.org/1999/xlink" xmlns:dc="http://purl.org/dc/elements/1.1/" xmlns:cc="http://creativecommons.org/ns#" xmlns:rdf="http://www.w3.org/1999/02/22-rdf-syntax-ns#" xmlns:inkscape="http://www.inkscape.org/namespaces/inkscape" width="350" height="350" style=""><rect id="backgroundrect" width="100%" height="100%" x="0" y="0" fill="none" stroke="none"/>
    <g style="" class="currentLayer">
      <title>outer circle</title>
      <path fill="#fff" fill-opacity="0" stroke="#000" stroke-opacity="1" stroke-width="20" d="M28.846461276922128,175.79020864486208 C28.846461276922128,95.8493792264976 93.59853310579723,31.0973073976225 173.53936252416167,31.0973073976225 C253.480191942526,31.0973073976225 318.2322637714011,95.8493792264976 318.2322637714011,175.79020864486208 C318.2322637714011,255.73103806322644 253.480191942526,320.4831098921016 173.53936252416167,320.4831098921016 C93.59853310579723,320.4831098921016 28.846461276922128,255.73103806322644 28.846461276922128,175.79020864486208 z" id="svg_1" class=""/>
      <title>inner circle</title>
      <path fill="#fff" fill-opacity="0" stroke="#000" stroke-opacity="1" stroke-width="20" d="M131.78852327614084,175.43306849289746 C131.78852327614084,152.5838199298458 150.29641461221274,134.07592859377388 173.14566317526442,134.07592859377388 C195.9949117383161,134.07592859377388 214.502803074388,152.5838199298458 214.502803074388,175.43306849289746 C214.502803074388,198.28231705594914 195.9949117383161,216.79020839202104 173.14566317526442,216.79020839202104 C150.29641461221274,216.79020839202104 131.78852327614084,198.28231705594914 131.78852327614084,175.43306849289746 z" id="svg_2" class=""/>
      <title>line</title>
      <path fill="#fff" fill-opacity="0" stroke="#000" stroke-opacity="1" stroke-width="20" d="M160.91937280523234,214.81757941243097 L191.73992511126568,318.23622708291623 " id="svg_3" class=""/>
    </g>
  </svg>